<svg width="23" height="23" viewBox="0 0 23 23" fill="none" xmlns="http://www.w3.org/2000/svg">
<path d="M22.2343 9.78255L12.1625 0.669983C11.7974 0.340474 11.2423 0.340474 10.8772 0.669983L0.805402 9.78255C0.408081 10.1375 0.373724 10.7473 0.728664 11.1446C1.0836 11.542 1.69343 11.5763 2.09075 11.2214L11.5199 2.67475L20.949 11.2022C21.3463 11.5571 21.9561 11.5228 22.3111 11.1255C22.666 10.7281 22.6316 10.1183 22.2343 9.76337V9.78255Z" fill="#3E3E3E"/>
<path d="M20.1529 12.4108C19.6231 12.4108 19.1937 12.8402 19.1937 13.37V20.5641H3.84617V13.37C3.84617 12.8402 3.41671 12.4108 2.88695 12.4108C2.35719 12.4108 1.92773 12.8402 1.92773 13.37V21.5233C1.92773 22.0531 2.35719 22.4825 2.88695 22.4825H20.1529C20.6826 22.4825 21.1121 22.0531 21.1121 21.5233V13.37C21.1121 12.8402 20.6826 12.4108 20.1529 12.4108Z" fill="#3E3E3E"/>
</svg>
