<svg width="26" height="26" viewBox="0 0 26 26" fill="none" xmlns="http://www.w3.org/2000/svg">
<path d="M3.68222 25.1373H11.8813V16.2018H8.93552V13.256H11.8813V9.57378C11.8813 7.54338 13.5331 5.89155 15.5635 5.89155H19.2457V8.83733H16.3C15.4878 8.83733 14.8271 9.49802 14.8271 10.3102V13.256H19.1128L18.6219 16.2018H14.8271V25.1373H21.4551C23.4855 25.1373 25.1373 23.4855 25.1373 21.4551V3.68222C25.1373 1.65182 23.4855 0 21.4551 0H3.68222C1.65182 0 0 1.65182 0 3.68222V21.4551C0 23.4855 1.65182 25.1373 3.68222 25.1373ZM1.47289 3.68222C1.47289 2.46402 2.46402 1.47289 3.68222 1.47289H21.4551C22.6733 1.47289 23.6644 2.46402 23.6644 3.68222V21.4551C23.6644 22.6733 22.6733 23.6644 21.4551 23.6644H16.3V17.6747H19.8696L20.8515 11.7831H16.3V10.3102H20.7186V4.41867H15.5635C12.7209 4.41867 10.4084 6.73118 10.4084 9.57378V11.7831H7.46264V17.6747H10.4084V23.6644H3.68222C2.46402 23.6644 1.47289 22.6733 1.47289 21.4551V3.68222Z" fill="#3E3E3E"/>
</svg>
