<svg width="36" height="36" viewBox="0 0 36 36" fill="none" xmlns="http://www.w3.org/2000/svg">
<path d="M5.61875 35.9998H17.0423V23.5501H12.9381V19.4458H17.0423V14.3155C17.0423 11.4866 19.3438 9.18512 22.1727 9.18512H27.303V13.2894H23.1988C22.0671 13.2894 21.1466 14.2099 21.1466 15.3415V19.4458H27.1179L26.4338 23.5501H21.1466V35.9998H30.3812C33.2102 35.9998 35.5116 33.6983 35.5116 30.8694V6.10691C35.5116 3.27801 33.2102 0.976562 30.3812 0.976562H5.61875C2.78985 0.976562 0.488403 3.27801 0.488403 6.10691V30.8694C0.488403 33.6983 2.78985 35.9998 5.61875 35.9998ZM2.54054 6.10691C2.54054 4.40962 3.92146 3.0287 5.61875 3.0287H30.3812C32.0785 3.0287 33.4595 4.40962 33.4595 6.10691V30.8694C33.4595 32.5667 32.0785 33.9476 30.3812 33.9476H23.1988V25.6022H28.1723L29.5403 17.3937H23.1988V15.3415H29.3552V7.13298H22.1727C18.2122 7.13298 14.9902 10.3549 14.9902 14.3155V17.3937H10.8859V25.6022H14.9902V33.9476H5.61875C3.92146 33.9476 2.54054 32.5667 2.54054 30.8694V6.10691Z" fill="white"/>
</svg>
