<svg width="79" height="79" viewBox="0 0 79 79" fill="none" xmlns="http://www.w3.org/2000/svg">
<path d="M49.7169 5.72485C42.4911 5.72485 36.6335 11.5824 36.6335 18.8082C36.6335 26.034 42.4911 31.8916 49.7169 31.8916C56.9427 31.8916 62.8002 26.034 62.8002 18.8082C62.7922 11.5859 56.9392 5.73286 49.7169 5.72485ZM49.7169 29.2749C43.9363 29.2749 39.2502 24.5888 39.2502 18.8082C39.2502 13.0277 43.9363 8.34153 49.7169 8.34153C55.4974 8.34153 60.1836 13.0277 60.1836 18.8082C60.177 24.5862 55.4948 29.2686 49.7169 29.2749Z" fill="#3E3E3E"/>
<path d="M78.1169 40.125L65.7073 27.7154C70.6628 18.8549 67.497 7.65467 58.6364 2.69934C49.7757 -2.25615 38.5755 0.909698 33.6202 9.77025C28.6648 18.6308 31.8305 29.831 40.6911 34.7863C46.8548 38.2335 54.4484 37.8447 60.228 33.7861L72.3419 45.9C72.8528 46.4108 73.681 46.4108 74.1919 45.9L78.1169 41.975C78.6277 41.4641 78.6277 40.6359 78.1169 40.125ZM49.7168 34.5083C41.0497 34.499 34.0261 27.4753 34.0168 18.8083C34.0168 10.1374 41.046 3.1082 49.7168 3.1082C58.3877 3.1082 65.4169 10.1374 65.4169 18.8083C65.4169 27.4791 58.3876 34.5083 49.7168 34.5083ZM73.2669 43.125L62.2612 32.1193C62.9742 31.4455 63.6326 30.7163 64.2302 29.9383L75.3419 41.05L73.2669 43.125Z" fill="#3E3E3E"/>
<path d="M58.8425 37.0949C57.8555 40.7432 56.3359 44.226 54.3327 47.4308L53.8407 48.2157C53.7635 48.34 53.7073 48.4761 53.6746 48.6187L47.9768 73.6786C47.555 75.5435 45.7012 76.7131 43.8364 76.2914C42.4638 75.981 41.4158 74.8705 41.1852 73.4824L37.2602 49.9401C36.7198 46.7038 33.6581 44.5181 30.4216 45.0586C27.919 45.4764 25.9579 47.4375 25.5401 49.9401L21.6151 73.4824C21.3015 75.3685 19.5186 76.6433 17.6325 76.3298C16.2443 76.099 15.1339 75.0511 14.8235 73.6786L9.12567 48.6096C9.09296 48.467 9.0367 48.3309 8.95951 48.2066L8.46757 47.4216C4.64101 41.3043 2.61341 34.2336 2.61669 27.0181C2.6175 18.1477 9.80911 10.9576 18.6793 10.9584C20.8531 10.9585 23.0042 11.4001 25.0023 12.2561C26.4369 12.8712 27.9528 13.2761 29.503 13.4585L29.8079 10.8601C28.5085 10.7073 27.2381 10.3675 26.0359 9.85136C16.5557 5.78684 5.57565 10.1771 1.51113 19.6574C0.514016 21.9833 -0.000160941 24.4874 2.67372e-06 27.0181C-0.00277753 34.7235 2.16268 42.2743 6.24862 48.8071L6.62281 49.4063L12.2722 74.2648C13.0149 77.5387 16.271 79.5907 19.5449 78.848C21.9531 78.3018 23.7915 76.3529 24.1964 73.9167L28.1214 50.3745C28.4251 48.563 30.1399 47.3408 31.9514 47.6445C33.3505 47.8792 34.4467 48.9754 34.6814 50.3745L38.6064 73.9167C39.1569 77.2283 42.2878 79.4667 45.5993 78.9162C48.0353 78.5113 49.9842 76.6729 50.5306 74.2648L56.18 49.4063L56.5542 48.8071C58.6911 45.387 60.3132 41.6713 61.3689 37.7791L58.8425 37.0949Z" fill="#3E3E3E"/>
<path d="M14.3917 17.4999L14.13 16.2178C11.5134 16.7424 6.54169 19.5998 6.54169 26.6583H9.15836C9.15836 20.025 14.431 18.8292 14.6534 18.7808L14.3917 17.4999Z" fill="#3E3E3E"/>
<rect x="17.0084" y="16.1917" width="2.61668" height="2.61668" fill="#3E3E3E"/>
<rect x="45.318" y="15.3184" width="10.1763" height="2.61668" transform="rotate(-45 45.318 15.3184)" fill="#3E3E3E"/>
<rect x="48.9968" y="20.23" width="12.9512" height="2.61668" transform="rotate(-45 48.9968 20.23)" fill="#3E3E3E"/>
</svg>
