<svg width="82" height="79" viewBox="0 0 82 79" fill="none" xmlns="http://www.w3.org/2000/svg">
<path d="M77.3546 48.4581L54.6527 42.7972C53.539 42.5194 52.3839 42.4459 51.2439 42.5803L30.2735 45.048L8.73899 26.0396C7.8068 25.2169 6.60615 24.763 5.36278 24.7637H5.1038C2.28504 24.7637 0 27.0486 0 29.8673C0 31.3193 0.618463 32.7025 1.70048 33.6708L23.5306 53.1958C24.2006 53.7926 24.9521 54.2913 25.7624 54.6765V59.8954C25.7563 62.9521 28.2295 65.4351 31.2864 65.441C32.2263 65.4429 33.1512 65.2053 33.9738 64.7509L43.3892 66.561V70.8645H12.2033C8.46103 70.8689 5.4282 73.9017 5.4238 77.644C5.4238 78.3929 6.0309 78.9999 6.7797 78.9999H74.575C75.3238 78.9999 75.9309 78.3929 75.9309 77.644V71.9357C75.9489 67.4974 72.8744 63.6453 68.5426 62.6789L45.0461 57.3393H45.0298H45.0108L39.3554 56.2072L40.1689 54.5909L52.7788 53.2635L74.7608 59.0939H74.7798C75.1952 59.1986 75.622 59.2515 76.0503 59.2512C78.9707 59.2601 81.3456 56.8998 81.3546 53.9794C81.3546 53.9708 81.3546 53.9623 81.3546 53.9536V53.593C81.3573 51.1664 79.7082 49.0493 77.3546 48.4581ZM43.3892 76.2881H8.36747C8.94424 74.6641 10.48 73.5783 12.2033 73.5763H43.3892V76.2881ZM46.101 60.3603L67.9419 65.3243C70.6456 65.9285 72.7035 68.1267 73.1283 70.8645H48.8128V73.5763H73.2191V76.2881H46.101V60.3603ZM33.8422 61.163C33.1418 62.5626 31.4394 63.1294 30.0398 62.4289C29.0805 61.9487 28.4744 60.9681 28.4742 59.8952V55.5021C29.2594 55.6226 30.0566 55.6436 30.847 55.5645L36.9635 54.9204L33.8422 61.163ZM43.3892 59.7732V63.8002L36.2395 62.424C36.249 62.4077 36.2598 62.3928 36.2693 62.3752L38.0984 58.7142L43.3892 59.7732ZM78.6428 53.9536C78.6423 55.3809 77.4848 56.5377 76.0576 56.5371C75.8494 56.5371 75.6421 56.5119 75.4401 56.4621L53.2276 50.5706C53.0687 50.5285 52.9032 50.5156 52.7395 50.5327L30.565 52.8676C28.6608 53.0699 26.76 52.4561 25.3339 51.1781L3.50383 31.653C2.51758 30.7742 2.43046 29.2624 3.30926 28.2762C3.76518 27.7645 4.41856 27.473 5.1038 27.4755H5.36278C5.94548 27.4757 6.50801 27.6882 6.94512 28.0735L28.9325 47.4751C29.221 47.7314 29.6057 47.8514 29.9888 47.8046L51.5612 45.2677C52.3773 45.1701 53.2046 45.2224 54.0019 45.4223L76.6997 51.0872C77.8441 51.3799 78.6443 52.4117 78.6428 53.593V53.9536Z" fill="#3E3E3E"/>
<rect x="29.8301" y="57.3054" width="2.71181" height="2.71181" fill="#3E3E3E"/>
<path d="M81.1164 3.43465C80.5016 1.59825 78.7827 0.359626 76.8462 0.357422H47.4569C45.2103 0.357422 43.3892 2.17857 43.3892 4.42514V31.5433H46.101V4.42514C46.101 3.67634 46.7081 3.06923 47.4569 3.06923H76.8462C77.8376 3.06686 78.6432 3.86871 78.6456 4.86022C78.6475 5.63597 78.1507 6.32528 77.4143 6.56883L65.1528 10.6623C63.4944 11.2154 62.3747 12.7662 62.3718 14.5144V16.7639C61.111 17.0249 59.9509 17.6408 59.0282 18.5388C57.8412 16.6368 55.3371 16.057 53.4351 17.2439C52.2443 17.9869 51.5219 19.2923 51.5246 20.696V24.7637C51.5246 27.0103 53.3458 28.8315 55.5923 28.8315V26.1197C54.8435 26.1197 54.2364 25.5125 54.2364 24.7637V20.696C54.2364 19.9472 54.8435 19.3401 55.5923 19.3401C56.3411 19.3401 56.9482 19.9472 56.9482 20.696V23.4078C56.9482 27.152 59.9836 30.1874 63.7278 30.1874C67.4719 30.1874 70.5073 27.152 70.5073 23.4078V20.696C70.5073 19.9472 71.1144 19.3401 71.8632 19.3401C72.612 19.3401 73.2191 19.9472 73.2191 20.696V24.7637C73.2191 25.5125 72.612 26.1197 71.8632 26.1197V28.8315C74.1098 28.8315 75.9309 27.0103 75.9309 24.7637V20.696C75.9346 18.454 74.1201 16.6334 71.8781 16.6297C70.4751 16.6273 69.1702 17.3496 68.4273 18.54C67.5048 17.6415 66.3447 17.0252 65.0837 16.7637V14.5131C65.0842 13.9297 65.4576 13.4121 66.0111 13.2277L78.2726 9.14099C80.6335 8.35066 81.9069 5.7958 81.1164 3.43465ZM67.7955 23.4078C67.7955 25.6544 65.9743 27.4756 63.7278 27.4756C61.4812 27.4756 59.66 25.6544 59.66 23.4078C59.66 21.1613 61.4812 19.3401 63.7278 19.3401C65.9743 19.3401 67.7955 21.1614 67.7955 23.4078Z" fill="#3E3E3E"/>
<rect x="62.3718" y="22.052" width="2.71181" height="2.71181" fill="#3E3E3E"/>
<path d="M48.8129 34.2551H40.6774V30.1873C40.6774 27.9408 38.8563 26.1196 36.6097 26.1196C34.3631 26.1196 32.542 27.9408 32.542 30.1873V31.5433H35.2538V30.1873C35.2538 29.4386 35.8609 28.8315 36.6097 28.8315C37.3585 28.8315 37.9656 29.4386 37.9656 30.1873V34.2551H27.1184C26.3696 34.2551 25.7625 34.8622 25.7625 35.611V38.3228H28.4743V36.9669H47.457V41.0346H50.1688V35.611C50.1688 34.8622 49.5617 34.2551 48.8129 34.2551Z" fill="#3E3E3E"/>
</svg>
