<svg width="72" height="66" viewBox="0 0 72 66" fill="none" xmlns="http://www.w3.org/2000/svg">
<path d="M49.5101 43.3274C46.6762 43.3274 25.5415 43.3274 22.9502 43.3274C22.19 43.3274 21.5739 43.9437 21.5739 44.7038C21.5739 52.7853 28.1487 59.36 36.2301 59.36C44.3115 59.36 50.8863 52.7851 50.8863 44.7038C50.8864 43.9436 50.2702 43.3274 49.5101 43.3274ZM37.6066 46.0801H40.1657V48.6394H37.6066V46.0801ZM34.8539 46.0801V48.6394H32.2947V46.0801H34.8539ZM36.2302 56.6073C30.132 56.6073 25.0901 51.9977 24.4057 46.0801H29.542V50.0158C29.542 50.7759 30.1583 51.3921 30.9183 51.3921H41.5421C42.3021 51.3921 42.9185 50.7759 42.9185 50.0158V46.0801H48.0547C47.3703 51.9977 42.3284 56.6073 36.2302 56.6073Z" fill="#3E3E3E"/>
<path d="M27.5982 35.4563C30.5541 35.4563 32.9587 33.0517 32.9587 30.0961C32.9587 29.3359 32.3424 28.7197 31.5824 28.7197C30.8222 28.7197 30.206 29.3359 30.206 30.0961C30.206 31.5338 29.0361 32.7036 27.5982 32.7036C26.1605 32.7036 24.9908 31.5338 24.9908 30.0961C24.9908 29.3359 24.3744 28.7197 23.6144 28.7197C22.8542 28.7197 22.238 29.3359 22.238 30.0961C22.238 33.0518 24.6427 35.4563 27.5982 35.4563Z" fill="#3E3E3E"/>
<path d="M50.174 28.7197C49.414 28.7197 48.7977 29.3359 48.7977 30.0961C48.7977 31.5338 47.6279 32.7036 46.1901 32.7036C44.7523 32.7036 43.5826 31.5338 43.5826 30.0961C43.5826 29.3359 42.9662 28.7197 42.2062 28.7197C41.4462 28.7197 40.8298 29.3359 40.8298 30.0961C40.8298 33.0518 43.2344 35.4563 46.1901 35.4563C49.1458 35.4563 51.5504 33.0517 51.5504 30.0961C51.5504 29.3359 50.9342 28.7197 50.174 28.7197Z" fill="#3E3E3E"/>
<path d="M62.0807 27.4771C59.2512 20.5936 53.7502 15.0811 46.8744 12.2369C47.3005 5.98661 42.3202 0.832031 36.2302 0.832031C30.1119 0.832031 25.1605 6.01702 25.5855 12.2372C18.7099 15.0814 13.2091 20.594 10.3797 27.4772C5.02914 28.1205 0.995605 32.6653 0.995605 38.0639C0.995605 43.4531 5.01951 48.0057 10.3797 48.6506C14.5598 58.8201 24.5716 66 36.2302 66C47.8889 66 57.9006 58.8201 62.0807 48.6505C67.4296 48.0073 71.4648 43.4645 71.4648 38.0639C71.4648 32.6737 67.4404 28.1227 62.0807 27.4771ZM36.2302 3.5846C40.5189 3.5846 44.0198 7.01185 44.1437 11.2712C39.0513 9.76456 33.5315 9.72822 28.3167 11.2712C28.4406 7.01185 31.9415 3.5846 36.2302 3.5846ZM9.33093 45.6282C6.07407 44.6258 3.74831 41.5972 3.74831 38.0639C3.74831 34.5397 6.06677 31.5036 9.33107 30.4985C7.9521 35.405 7.94632 40.6993 9.33093 45.6282ZM36.2302 63.2473C22.842 63.2473 12.0083 52.7635 11.1158 39.9246C10.0413 25.3257 21.627 12.8805 36.2302 12.8805C38.8434 12.8805 41.3648 13.2809 43.7366 14.023C42.6816 17.1583 39.7165 19.4237 36.2302 19.4237C35.4701 19.4237 34.8539 20.0399 34.8539 20.8C34.8539 21.56 35.4701 22.1764 36.2302 22.1764C40.8943 22.1764 44.8663 19.1678 46.3146 14.9903C56.2457 19.3475 62.4252 29.6597 61.2796 40.6685C59.9719 53.3356 49.237 63.2473 36.2302 63.2473L36.2302 63.2473ZM63.1296 45.6282C64.5071 40.725 64.5151 35.4327 63.1296 30.4993C66.3923 31.5035 68.7121 34.537 68.7121 38.0637C68.7121 41.5955 66.3879 44.6255 63.1296 45.6282Z" fill="#3E3E3E"/>
</svg>
