<svg width="26" height="26" viewBox="0 0 26 26" fill="none" xmlns="http://www.w3.org/2000/svg">
<path d="M4.10756 25.1543H21.8924C23.9242 25.1543 25.5771 23.5014 25.5771 21.4696V3.68471C25.5771 1.65294 23.9242 0 21.8924 0H4.10756C2.07579 0 0.422852 1.65294 0.422852 3.68471V21.4696C0.422852 23.5014 2.07579 25.1543 4.10756 25.1543ZM1.89674 3.68471C1.89674 2.46569 2.88854 1.47388 4.10756 1.47388H21.8924C23.1115 1.47388 24.1033 2.46569 24.1033 3.68471V21.4696C24.1033 22.6886 23.1115 23.6804 21.8924 23.6804H4.10756C2.88854 23.6804 1.89674 22.6886 1.89674 21.4696V3.68471Z" fill="#3E3E3E"/>
<path d="M12.9997 19.2095C16.6567 19.2095 19.6321 16.2341 19.6321 12.5771C19.6321 8.91999 16.6567 5.94458 12.9997 5.94458C9.3426 5.94458 6.36719 8.91999 6.36719 12.5771C6.36719 16.2341 9.3426 19.2095 12.9997 19.2095ZM12.9997 7.41846C15.8442 7.41846 18.1583 9.73254 18.1583 12.5771C18.1583 15.4216 15.8442 17.7357 12.9997 17.7357C10.1552 17.7357 7.84107 15.4216 7.84107 12.5771C7.84107 9.73254 10.1552 7.41846 12.9997 7.41846Z" fill="#3E3E3E"/>
<path d="M20.369 7.41848C21.5881 7.41848 22.5799 6.42668 22.5799 5.20766C22.5799 3.98862 21.5881 2.99683 20.369 2.99683C19.15 2.99683 18.1582 3.98862 18.1582 5.20766C18.1582 6.42668 19.15 7.41848 20.369 7.41848ZM20.369 4.47071C20.7753 4.47071 21.106 4.80138 21.106 5.20766C21.106 5.61393 20.7753 5.9446 20.369 5.9446C19.9627 5.9446 19.6321 5.61393 19.6321 5.20766C19.6321 4.80138 19.9627 4.47071 20.369 4.47071Z" fill="#3E3E3E"/>
</svg>
