<svg width="36" height="37" viewBox="0 0 36 37" fill="none" xmlns="http://www.w3.org/2000/svg">
<path d="M6.08694 36.0234H30.8662C33.697 36.0234 36 33.7204 36 30.8896V6.11038C36 3.27956 33.697 0.976562 30.8662 0.976562H6.08694C3.25612 0.976562 0.953125 3.27956 0.953125 6.11038V30.8896C0.953125 33.7204 3.25612 36.0234 6.08694 36.0234ZM3.00665 6.11038C3.00665 4.41194 4.38851 3.03009 6.08694 3.03009H30.8662C32.5646 3.03009 33.9465 4.41194 33.9465 6.11038V30.8896C33.9465 32.5881 32.5646 33.9699 30.8662 33.9699H6.08694C4.38851 33.9699 3.00665 32.5881 3.00665 30.8896V6.11038Z" fill="white"/>
<path d="M18.4766 27.741C23.5719 27.741 27.7175 23.5955 27.7175 18.5002C27.7175 13.4048 23.5719 9.25928 18.4766 9.25928C13.3813 9.25928 9.23572 13.4048 9.23572 18.5002C9.23572 23.5955 13.3813 27.741 18.4766 27.741ZM18.4766 11.3128C22.4398 11.3128 25.6639 14.5369 25.6639 18.5002C25.6639 22.4633 22.4398 25.6875 18.4766 25.6875C14.5134 25.6875 11.2892 22.4633 11.2892 18.5002C11.2892 14.5369 14.5134 11.3128 18.4766 11.3128Z" fill="white"/>
<path d="M28.7442 11.3124C30.4427 11.3124 31.8245 9.93059 31.8245 8.23215C31.8245 6.53371 30.4427 5.15186 28.7442 5.15186C27.0458 5.15186 25.6639 6.53371 25.6639 8.23215C25.6639 9.93059 27.0458 11.3124 28.7442 11.3124ZM28.7442 7.20538C29.3103 7.20538 29.771 7.66609 29.771 8.23215C29.771 8.7982 29.3103 9.25891 28.7442 9.25891C28.1782 9.25891 27.7175 8.7982 27.7175 8.23215C27.7175 7.66609 28.1782 7.20538 28.7442 7.20538Z" fill="white"/>
</svg>
