<svg width="67" height="97" viewBox="0 0 67 97" fill="none" xmlns="http://www.w3.org/2000/svg">
<g opacity="0.251876">
<path d="M32.3787 88.2632C32.6383 88.6125 33.0457 88.8211 33.4808 88.8274L33.4992 88.8274C33.9275 88.8274 34.3322 88.6303 34.5964 88.2929C35.7505 86.8207 62.8482 51.9927 62.8482 29.9349C62.8482 13.7259 49.7082 0.585934 33.4992 0.585938C17.2902 0.585938 4.15014 13.7259 4.15015 29.935C4.15014 38.3825 8.91666 50.787 18.319 66.8015C25.2651 78.6329 32.3085 88.1684 32.3787 88.2632ZM33.4992 3.37523C48.1613 3.39148 60.0431 15.2736 60.0589 29.9357C60.0589 48.5595 38.7199 78.1659 33.5279 85.0922C28.3987 77.8982 6.93945 46.8214 6.93945 29.9357C6.95526 15.2736 18.8371 3.39148 33.4992 3.37523L33.4992 3.37523Z" fill="white"/>
<path d="M50.3705 29.9356C50.3705 20.6169 42.8168 13.0633 33.4989 13.0635C24.1814 13.0635 16.6278 20.6172 16.6279 29.935C16.6279 39.2526 24.1816 46.8062 33.4995 46.806C42.8126 46.7958 50.36 39.2487 50.3705 29.9356V29.9356ZM33.4992 44.0167C25.7218 44.0167 19.4171 37.7119 19.4172 29.9345C19.4172 22.1574 25.7221 15.8526 33.4995 15.8528C41.2766 15.8528 47.5813 22.1577 47.5812 29.935C47.5723 37.7085 41.2727 44.008 33.4992 44.0167Z" fill="white"/>
<path d="M47.7198 79.3193C46.9657 79.245 46.2901 79.7861 46.1979 80.5382C46.1057 81.2904 46.6306 81.9786 47.3803 82.0887C59.3879 83.5622 63.273 86.342 63.273 87.4569C63.273 89.5505 52.7645 93.6252 33.4992 93.6252C14.2339 93.6252 3.72539 89.5473 3.72539 87.4569C3.72539 86.2615 7.53558 83.8157 17.7619 82.3365C18.5082 82.2096 19.0171 81.5108 18.909 80.7616C18.8009 80.0124 18.1152 79.486 17.3635 79.5751C9.87221 80.6598 0.93689 82.9064 0.93689 87.4569C0.93689 94.0293 20.4102 96.4145 33.5 96.4145C46.5898 96.4145 66.0631 94.0293 66.0631 87.4569C66.0623 82.3358 54.5704 80.1609 47.7198 79.3193Z" fill="white"/>
</g>
</svg>
