<svg width="23" height="20" viewBox="0 0 23 20" fill="none" xmlns="http://www.w3.org/2000/svg">
<path d="M22.5566 3.01143C22.5566 1.8245 21.5914 0.862305 20.4006 0.862305H2.6404C1.44965 0.862305 0.484375 1.8245 0.484375 3.01143V17.0197C0.484375 18.2066 1.44965 19.1688 2.6404 19.1688H20.4006C21.5914 19.1688 22.5566 18.2066 22.5566 17.0197V3.01143ZM2.65195 2.57976H20.4175C20.6553 2.57976 20.8467 2.76878 20.8467 3.00582V3.02446L11.8392 12.0041C11.7293 12.1136 11.6015 12.13 11.5348 12.13C11.4681 12.13 11.3399 12.1136 11.23 12.0041L2.2204 3.02324V3.00582C2.2204 2.76878 2.41418 2.57976 2.65195 2.57976ZM20.4175 17.4514H2.65195C2.41418 17.4514 2.2204 17.2551 2.2204 17.0181V5.45469L10.0106 13.2199C10.4179 13.6258 10.9594 13.8493 11.5352 13.8493C12.1112 13.8493 12.6516 13.6257 13.0588 13.2198L20.8467 5.4559V17.0181C20.8467 17.2551 20.6553 17.4514 20.4175 17.4514Z" fill="#3E3E3E"/>
</svg>
