<svg width="40" height="37" viewBox="0 0 40 37" fill="none" xmlns="http://www.w3.org/2000/svg">
<path d="M1.29236 31.3507H7.13355V34.8554C7.13355 35.5006 7.65661 36.0237 8.30178 36.0237H38.8317C39.4769 36.0237 40 35.5006 40 34.8554V4.48128C40 3.8361 39.4769 3.31304 38.8317 3.31304H32.9905V2.1448C32.9905 1.49962 32.4675 0.976562 31.8223 0.976562C31.1771 0.976562 30.6541 1.49962 30.6541 2.1448V3.31304H24.735V2.1448C24.735 1.49962 24.2119 0.976562 23.5667 0.976562C22.9216 0.976562 22.3985 1.49962 22.3985 2.1448V3.31304H16.5573V2.1448C16.5573 1.49962 16.0343 0.976562 15.3891 0.976562C14.7439 0.976562 14.2209 1.49962 14.2209 2.1448V3.31304H8.30178C7.6566 3.31304 7.13354 3.8361 7.13354 4.48128V11.4907C7.13354 20.1006 3.55523 26.7242 0.544453 29.2851C0.166567 29.5999 0.0264563 30.1177 0.193826 30.5802C0.361351 31.0427 0.800452 31.3507 1.29236 31.3507H1.29236ZM37.6635 33.6872H9.47002V31.3507H31.8223C32.0956 31.3507 32.3602 31.2549 32.5702 31.0799C33.9746 29.9102 36.1499 27.1253 37.6635 23.5584V33.6872ZM9.47002 5.64952H14.2209V6.81775C14.2209 7.46293 14.7439 7.98599 15.3891 7.98599C16.0343 7.98599 16.5573 7.46293 16.5573 6.81775V5.64952H22.3985V6.81775C22.3985 7.46293 22.9216 7.98599 23.5668 7.98599C24.2119 7.98599 24.735 7.46293 24.735 6.81775V5.64952H30.6541V6.81775C30.6541 7.46293 31.1771 7.98599 31.8223 7.98599C32.4675 7.98599 32.9905 7.46293 32.9905 6.81775V5.64952H37.6635V10.3225H9.47002V5.64952ZM9.45001 12.6582H37.6428C37.3795 20.0691 34.5352 25.9 31.3642 29.0143H3.94963C7.54258 24.4363 9.25725 18.4754 9.45001 12.6582Z" fill="white"/>
</svg>
