<svg width="80" height="79" viewBox="0 0 80 79" fill="none" xmlns="http://www.w3.org/2000/svg">
<path d="M72.9421 5.60016H61.146C61.146 2.70469 58.7987 0.357422 55.9032 0.357422C53.0078 0.357422 50.6605 2.70469 50.6605 5.60016H38.8643C35.2468 5.60442 32.3152 8.53609 32.3109 12.1536V21.2196H34.9323V12.1536C34.9323 9.98194 36.6927 8.22153 38.8643 8.22153H46.1478L45.1648 10.8429H38.8643C38.1405 10.8429 37.5536 11.4298 37.5536 12.1536V21.2196H40.175V13.4643H44.1818L42.879 16.935C42.6242 17.6124 42.9668 18.3684 43.6444 18.6231C43.7923 18.6788 43.949 18.7072 44.1071 18.707H67.6994C68.4232 18.7077 69.0107 18.1215 69.0114 17.3976C69.0116 17.2397 68.9832 17.0829 68.9275 16.935L67.6247 13.4643H71.6314V52.7848H62.4566C61.7328 52.7848 61.146 53.3717 61.146 54.0955V63.2703H44.1071V65.8917H72.9421C73.666 65.8917 74.2528 65.3048 74.2528 64.581V12.1536C74.2528 11.4298 73.666 10.8429 72.9421 10.8429H66.6417L65.6587 8.22153H72.9421C75.1138 8.22153 76.8742 9.98194 76.8742 12.1536V64.581C76.8742 66.7526 75.1138 68.513 72.9421 68.513H44.1071V71.1344H72.9421C76.5596 71.1301 79.4913 68.1985 79.4955 64.581V12.1536C79.4911 8.53609 76.5596 5.60442 72.9421 5.60016ZM63.7673 55.4062H69.7781L63.7673 61.417V55.4062ZM71.6314 63.2703H65.6207L71.6314 57.2595V63.2703ZM65.8081 16.0856H45.9984L48.9474 8.22153H51.9712C52.695 8.22153 53.2819 7.63467 53.2819 6.91085V5.60016C53.2819 4.15235 54.4554 2.97879 55.9032 2.97879C57.351 2.97879 58.5246 4.15235 58.5246 5.60016V6.91085C58.5246 7.63467 59.1115 8.22153 59.8353 8.22153H62.859L65.8081 16.0856Z" fill="#3E3E3E"/>
<path d="M35.8432 23.9563C34.1968 23.9572 32.5677 24.2917 31.054 24.9393C26.8331 26.7389 22.0607 26.7389 17.8397 24.9393C11.6506 22.2906 4.48624 25.1609 1.83751 31.3499C1.1897 32.8636 0.855311 34.4928 0.854492 36.1392C0.861373 41.2562 2.05295 46.302 4.33567 50.8817L6.13 54.473L8.35816 74.5134C8.66535 77.2811 11.1581 79.2758 13.9258 78.9686C16.1985 78.7163 18.0169 76.9662 18.3561 74.7047L21.2278 55.5569C21.492 53.7792 23.1476 52.5522 24.9254 52.8165C26.3424 53.0272 27.4552 54.1398 27.6659 55.5569L30.5376 74.7047C30.9504 77.4587 33.5177 79.3565 36.2717 78.9437C38.5331 78.6047 40.2832 76.7861 40.5355 74.5134L42.7636 54.473L44.558 50.8817C46.8407 46.302 48.0323 41.2562 48.0391 36.1392C48.0355 29.4072 42.5752 23.9527 35.8432 23.9563ZM42.2131 49.7087L40.3127 53.5097C40.244 53.6483 40.1996 53.7977 40.1816 53.9514L37.9298 74.2237C37.7843 75.5521 36.5895 76.5109 35.2611 76.3652C34.1678 76.2455 33.293 75.4033 33.1314 74.3155L30.2597 55.1677C29.7762 51.9573 26.7818 49.7467 23.5714 50.2302C21.0205 50.6144 19.018 52.6168 18.6339 55.1677L15.7622 74.3155C15.5659 75.6373 14.3354 76.5497 13.0135 76.3534C11.9257 76.1919 11.0836 75.317 10.9638 74.2237L8.71073 53.9514C8.69255 53.7977 8.64831 53.6483 8.57967 53.5096L6.67917 49.7087C4.57831 45.4934 3.48176 40.8489 3.47586 36.1391C3.47684 30.855 7.76131 26.572 13.0455 26.5728C14.339 26.573 15.6189 26.8356 16.8081 27.3445C21.688 29.4258 27.2056 29.4258 32.0855 27.3445C36.9435 25.2656 42.5672 27.5185 44.6461 32.3765C45.155 33.5656 45.4174 34.8457 45.4178 36.1391C45.4114 40.8491 44.3145 45.4935 42.2131 49.7087Z" fill="#3E3E3E"/>
<path d="M10.6125 29.4126C7.78861 31.2905 6.09341 34.4583 6.09717 37.8495V39.6779H8.71854V37.8495C8.71576 35.3348 9.9732 32.9859 12.0673 31.5936L10.6125 29.4126Z" fill="#3E3E3E"/>
<rect x="50.8545" y="32" width="17" height="2" fill="#3E3E3E"/>
<rect x="50.8545" y="40" width="17" height="2" fill="#3E3E3E"/>
<rect x="50.8545" y="48" width="17" height="2" fill="#3E3E3E"/>
<rect x="46.8545" y="24" width="21" height="3" fill="#3E3E3E"/>
<rect x="50.8545" y="55" width="8" height="3" fill="#3E3E3E"/>
</svg>
