<svg width="26" height="26" viewBox="0 0 26 26" fill="none" xmlns="http://www.w3.org/2000/svg">
<path d="M24.2355 18.0245C24.1913 17.9878 19.1923 14.4103 17.8359 14.6448C17.184 14.76 16.8109 15.2041 16.0638 16.0947C15.9436 16.2383 15.654 16.5813 15.4303 16.8259C14.9581 16.6721 14.4976 16.4846 14.0522 16.265C11.753 15.1457 9.89537 13.288 8.77604 10.9888C8.5564 10.5435 8.36895 10.0829 8.21512 9.61074C8.46052 9.38621 8.80442 9.09657 8.95133 8.97303C9.83694 8.23015 10.281 7.85703 10.3962 7.2043C10.6324 5.85292 7.05322 0.849725 7.01649 0.804651C6.68643 0.33655 6.16377 0.0412164 5.59249 0C4.14178 -1.19209e-07 0 5.37213 0 6.27778C0 6.33037 0.0759573 11.6758 6.66759 18.3809C13.3652 24.9651 18.7106 25.041 18.7632 25.041C19.6689 25.041 25.041 20.8992 25.041 19.4485C24.9998 18.877 24.7041 18.3543 24.2355 18.0245ZM18.6714 23.3666C17.9419 23.3065 13.4562 22.7147 7.84785 17.2048C2.30962 11.5664 1.73284 7.06824 1.67524 6.37127C2.76935 4.65399 4.0907 3.09258 5.60335 1.7295C5.63673 1.76289 5.68097 1.81297 5.73773 1.87808C6.89782 3.46169 7.89717 5.157 8.72095 6.93887C8.45306 7.20837 8.16991 7.46226 7.87289 7.69928C7.4123 8.05023 6.98935 8.448 6.61083 8.88622L6.408 9.17002L6.46809 9.51308C6.64474 10.2783 6.91529 11.0187 7.27358 11.7175C8.55726 14.3535 10.6873 16.4833 13.3235 17.7666C14.0222 18.1254 14.7626 18.3962 15.5279 18.5729L15.871 18.633L16.1548 18.4302C16.5947 18.05 16.9941 17.6254 17.3467 17.1631C17.608 16.8509 17.9577 16.4344 18.0896 16.3167C19.8766 17.1397 21.5762 18.1403 23.1629 19.3033C23.2322 19.3617 23.2806 19.4068 23.3132 19.436C21.9503 20.9491 20.3889 22.2708 18.6714 23.3649L18.6714 23.3666Z" fill="#3E3E3E"/>
</svg>
