<svg width="36" height="37" viewBox="0 0 36 37" fill="none" xmlns="http://www.w3.org/2000/svg">
<path d="M34.8726 26.2034C34.8107 26.152 27.8141 21.145 25.9157 21.4733C25.0033 21.6345 24.4811 22.256 23.4356 23.5025C23.2673 23.7034 22.862 24.1836 22.5489 24.5258C21.888 24.3105 21.2435 24.0482 20.6201 23.7408C17.4022 22.1742 14.8023 19.5743 13.2357 16.3564C12.9283 15.733 12.6659 15.0885 12.4506 14.4276C12.7941 14.1134 13.2754 13.708 13.481 13.5351C14.7205 12.4954 15.342 11.9732 15.5032 11.0596C15.8339 9.16823 10.8245 2.16583 10.7731 2.10274C10.3111 1.44759 9.57961 1.03425 8.78006 0.976563C6.74966 0.976562 0.952881 8.49532 0.952881 9.76286C0.952881 9.83646 1.05919 17.3178 10.2847 26.7023C19.6587 35.9173 27.14 36.0236 27.2136 36.0236C28.4812 36.0236 35.9999 30.2268 35.9999 28.1964C35.9423 27.3966 35.5284 26.6649 34.8726 26.2034ZM27.0851 33.6801C26.0641 33.596 19.786 32.7677 11.9366 25.0562C4.18539 17.1648 3.37814 10.8692 3.29753 9.8937C4.82883 7.49022 6.67817 5.3049 8.79525 3.39714C8.84197 3.44388 8.90389 3.51397 8.98333 3.60509C10.607 5.8215 12.0056 8.19423 13.1586 10.6881C12.7837 11.0653 12.3874 11.4206 11.9717 11.7524C11.327 12.2435 10.7351 12.8003 10.2053 13.4136L9.92142 13.8108L10.0055 14.2909C10.2528 15.3619 10.6314 16.3982 11.1329 17.3763C12.9295 21.0656 15.9107 24.0463 19.6002 25.8424C20.5781 26.3446 21.6144 26.7237 22.6856 26.971L23.1657 27.0551L23.5629 26.7712C24.1785 26.2391 24.7376 25.6448 25.2311 24.9978C25.5968 24.5609 26.0863 23.9779 26.2709 23.8132C28.7718 24.9651 31.1506 26.3654 33.3714 27.9932C33.4684 28.0749 33.5361 28.138 33.5817 28.1789C31.6742 30.2967 29.4889 32.1464 27.0851 33.6778L27.0851 33.6801Z" fill="white"/>
</svg>
